# xmcd CD database file
#
# Track frame offsets:
#	150
#	15722
#	35865
#	49040
#	64670
#	84477
#	94330
#	111905
#	129652
#	151292
#
# Disc length: 2321 seconds
#
# Revision: 0
# Processed by: cddbd v1.5.1PL2 Copyright (c) Steve Scherf et al.
# Submitted via: CDex 1.50
#
DISCID=83090f0a
DTITLE=Dorothy Donegan - September Song
DYEAR=1900
DGENRE=Jazz
TTITLE0=I Can't Give You Anything But Love
TTITLE1=September Song
TTITLE2=Up A Lazy River
TTITLE3=Happiness is a Thing Called Joe
TTITLE4=St Louis Blues
TTITLE5=Love for Sale
TTITLE6=Tenderly and Stella by Starlight - medley
TTITLE7=Lullaby of Birdland
TTITLE8=Dancing on the Ceiling
TTITLE9=I Get a Kick out of You
EXTD=
EXTT0=
EXTT1=
EXTT2=
EXTT3=
EXTT4=
EXTT5=
EXTT6=
EXTT7=
EXTT8=
EXTT9=
PLAYORDER=
